<svg xmlns="http://www.w3.org/2000/svg" viewBox="0 0 500 500"><g id="freepik--Shadow--inject-2"><g id="freepik--shape--inject-2"><ellipse id="freepik--path--inject-44--inject-2" cx="250" cy="416.24" rx="193.89" ry="11.32" style="fill:#f5f5f5"></ellipse></g></g><g id="freepik--plane-1--inject-2"><path d="M370,143.65c-1.1,3.41-5.32,4.68-5.32,4.68L170.8,158.65c-13.74.26-23.53-1.43-30.49-4a33.32,33.32,0,0,1-10.8-6.06c-6.35-5.53-6.44-11.28-6.44-11.28L149.84,136l7.07-.36,8.15-.42c60.27-3.07,164.93-8.37,172.5-8.39a45,45,0,0,1,11.89,2.08,73.83,73.83,0,0,1,10.27,3.87c4,1.89,7.42,4,9.17,5.93a4.59,4.59,0,0,1,1.26,2.21A5.73,5.73,0,0,1,370,143.65Z" style="fill:#FF9E40"></path><path d="M165.06,135.21l-8.15.42-7.07.36-26.77,1.37-3.5-29,11.72-.49s2.09,3.75,10.08,14.87S165.06,135.21,165.06,135.21Z" style="fill:#FF9E40"></path><path d="M370,143.65c-1.1,3.41-5.32,4.68-5.32,4.68L170.8,158.65c-13.74.26-23.53-1.43-30.49-4Z" style="fill:#263238"></path><path d="M368.89,138.7l-239.38,9.94c-6.35-5.53-6.43-11.28-6.43-11.28l0-.31-.22-1.84-3.24-26.82,11.71-.49s2.1,3.75,10.09,14.87,23.69,12.44,23.69,12.44c60.26-3.07,164.92-8.37,172.49-8.39a45,45,0,0,1,11.89,2.08c.43.12.85.25,1.28.39a73.88,73.88,0,0,1,9,3.48c.53.25,1,.5,1.55.76A26.93,26.93,0,0,1,368.89,138.7Z" style="opacity:0.1"></path><rect x="173.97" y="138.99" width="3.4" height="4.75" rx="1.49" transform="translate(-5.81 7.55) rotate(-2.42)" style="fill:#fff"></rect><rect x="180.97" y="138.69" width="3.4" height="4.75" rx="1.49" transform="translate(-12.32 17.59) rotate(-5.33)" style="fill:#fff"></rect><rect x="188.11" y="138.39" width="3.4" height="4.75" rx="1.49" transform="translate(-5.81 8.19) rotate(-2.43)" style="fill:#fff"></rect><rect x="195.19" y="138.09" width="3.4" height="4.75" rx="1.49" transform="translate(-5.76 8.44) rotate(-2.42)" style="fill:#fff"></rect><rect x="202.72" y="137.77" width="3.4" height="4.75" rx="1.49" transform="translate(-5.74 8.76) rotate(-2.42)" style="fill:#fff"></rect><rect x="210.08" y="137.46" width="3.4" height="4.75" rx="1.49" transform="translate(-5.72 9.07) rotate(-2.42)" style="fill:#fff"></rect><rect x="277.4" y="134.62" width="3.4" height="4.75" rx="1.49" transform="translate(-5.54 11.91) rotate(-2.42)" style="fill:#fff"></rect><rect x="284.9" y="134.31" width="3.4" height="4.75" rx="1.49" transform="matrix(1, -0.04, 0.04, 1, -5.52, 12.23)" style="fill:#fff"></rect><rect x="291.57" y="134.02" width="3.4" height="4.75" rx="1.49" transform="translate(-5.5 12.51) rotate(-2.42)" style="fill:#fff"></rect><rect x="298.55" y="133.73" width="3.4" height="4.75" rx="1.49" transform="translate(-5.48 12.8) rotate(-2.42)" style="fill:#fff"></rect><rect x="305.12" y="133.45" width="3.4" height="4.75" rx="1.49" transform="translate(-5.46 13.08) rotate(-2.42)" style="fill:#fff"></rect><path d="M275.08,137.66l-71.86-23.51A23.62,23.62,0,0,0,195,113l-16.1.55,42,26.72Z" style="fill:#263238"></path><path d="M244.07,154.75l-14.93,14,5.79.27a23.06,23.06,0,0,0,8.24-1.13l47.36-15.62Z" style="fill:#263238"></path><path d="M187.07,153.88l-2.54-2.77-23.9-5.51a32.87,32.87,0,0,0-9.33-.78l-10.41.62,20.17,9.69Z" style="fill:#263238"></path><path d="M165.07,135.21l-42,1.84-.22-1.84-1.4-11.61-.65-5.36-1.19-9.85,11.71-.49s1.42,2.53,6.35,9.6c1,1.47,2.2,3.13,3.56,5l.18.25C149.37,133.89,165.07,135.21,165.07,135.21Z" style="fill:#263238"></path><path d="M141.2,122.52l-19.78,1.08-.65-5.36,16.87-.74C138.66,119,139.84,120.63,141.2,122.52Z" style="fill:#fff"></path><path d="M361.27,133.53c-10.2.71-39.07,2.07-43.33,1.76-5.26-.39-4.57-4.33-4.57-4.33l37.36-1.67a73.88,73.88,0,0,1,9,3.48C360.25,133,360.77,133.27,361.27,133.53Z" style="fill:#fff"></path><path d="M149,211.11c.88-1.86,58.31-58.83,58.31-58.83l6.8,67.51" style="fill:none;stroke:#263238;stroke-linecap:round;stroke-linejoin:round;stroke-width:0.5px"></path><polyline points="159.97 212.09 207.33 152.28 222.77 221.27" style="fill:none;stroke:#263238;stroke-linecap:round;stroke-linejoin:round;stroke-width:0.5px"></polyline><rect x="154.22" y="216.19" width="65.84" height="47.32" transform="translate(35.65 -23.97) rotate(8.1)" style="fill:#FF9E40"></rect><rect x="154.22" y="216.19" width="65.84" height="47.32" transform="translate(35.65 -23.97) rotate(8.1)" style="opacity:0.30000000000000004"></rect><rect x="145.29" y="214.92" width="65.84" height="47.32" transform="translate(35.38 -22.72) rotate(8.1)" style="fill:#FF9E40"></rect><circle cx="178.14" cy="239.08" r="17.8" transform="translate(-7.64 5.89) rotate(-1.85)" style="fill:#fff;opacity:0.5"></circle><rect x="205.14" y="224.18" width="11.98" height="4.01" transform="translate(33.97 -27.49) rotate(8.1)" style="fill:#fff;opacity:0.5"></rect><rect x="200.61" y="256.02" width="11.98" height="4.01" transform="translate(38.41 -26.53) rotate(8.1)" style="fill:#fff;opacity:0.5"></rect><path d="M167.28,230.54l3.56,2.19a1,1,0,0,1,.3,1.29l-1.59,2.57a.93.93,0,0,1-1.27.3l-3.57-2.19a4.79,4.79,0,0,0,6.43,4.61,3.52,3.52,0,0,1,3.22.46L187,248.56a2.62,2.62,0,0,0,3.65-.57,2.57,2.57,0,0,0-.65-3.58l-.24-.15-13.62-7.35a3.54,3.54,0,0,1-1.83-2.69A4.79,4.79,0,0,0,169,230a4.66,4.66,0,0,0-1.66.52Zm22.62,16.83a1,1,0,0,1-1.35.31,1,1,0,0,1,1-1.65,1,1,0,0,1,.32,1.34Z" style="fill:#fff"></path><polyline points="297.92 283.89 300.25 148.64 239.73 277.92" style="fill:none;stroke:#263238;stroke-linecap:round;stroke-linejoin:round;stroke-width:0.5px"></polyline><polyline points="305.5 285.53 300.25 148.64 250.03 279.65" style="fill:none;stroke:#263238;stroke-linecap:round;stroke-linejoin:round;stroke-width:0.5px"></polyline><rect x="244.56" y="281.19" width="59.07" height="42.45" transform="translate(38 -30.51) rotate(6.85)" style="fill:#FF9E40"></rect><rect x="244.56" y="281.19" width="59.07" height="42.45" transform="translate(38 -30.51) rotate(6.85)" style="opacity:0.30000000000000004"></rect><rect x="236.53" y="280.22" width="59.07" height="42.45" transform="translate(37.83 -29.56) rotate(6.85)" style="fill:#FF9E40"></rect><circle cx="266.01" cy="301.9" r="15.97" transform="translate(-129.93 373.54) rotate(-58.87)" style="fill:#fff;opacity:0.5"></circle><path d="M256.33,298.12c.49-.58,1.36-.47,2.07.16l4.3,4.18-1.93,2.22s-2.88-3.91-3.48-4.69S256,298.51,256.33,298.12Z" style="fill:#fff;opacity:0.8;isolation:isolate"></path><path d="M261.07,298.49c.1-.82.94-1.07,1.91-.85s4.75,1.93,4.75,1.93,4.3-.74,6.53.16c.75.29.78,1,.53,1.63a1.27,1.27,0,0,1-1.37.88l-6.24.05a1.32,1.32,0,0,1-.34,0,40.32,40.32,0,0,0-4.77-2.85C261.17,299,261,298.86,261.07,298.49Z" style="fill:#fff"></path><path d="M274.76,300c-.66-.51-2.1-.57-3.59-.22a10.92,10.92,0,0,0-4.29,2.08l-.14,0-4.69.36-4.91-3.94c-.8-.6-1.69-.66-2.1-.07-.28.4.51,1.08,1.22,1.82s3.17,3.38,3.95,4.23a1.69,1.69,0,0,0,.53.39l1.13.55a4.45,4.45,0,0,0,1.84.33l9.1-1,5.33,4.71.73-6Z" style="fill:#fff"></path><rect x="289.97" y="287.88" width="10.75" height="3.59" transform="translate(36.63 -33.14) rotate(6.85)" style="fill:#fff;opacity:0.5"></rect><rect x="286.53" y="316.53" width="10.75" height="3.59" transform="translate(40.02 -32.52) rotate(6.85)" style="fill:#fff;opacity:0.5"></rect></g><g id="freepik--plane-2--inject-2"><path d="M303.51,74.78a2.58,2.58,0,0,0-.75-1.2l-.42-.39a19.3,19.3,0,0,0-4.8-2.7l-.67-.27a40.8,40.8,0,0,0-5.12-1.65,25.81,25.81,0,0,0-6.19-.9h-.45c-2.09.08-17.43,1.42-36.43,3.12-5.27.46-10.82,1-16.45,1.47l-12.68-3.6A13.19,13.19,0,0,0,215,68.2l-8.92.66,8.59,5-25,2.27a22.69,22.69,0,0,1-8.23-2.24,15.12,15.12,0,0,1-5.19-4.14c-1.72-2.21-3-3.88-3.88-5.11l-.07-.09-.32-.45-.32-.43-.06-.09-.23-.32-.05-.07-.21-.3v0l-.6-.87h0l-.07-.11,0,0,0-.06,0,0v0l0,0-3.79.31-2.69.22,2.51,15.58,0,.25v0l0,.13a4.94,4.94,0,0,0,.26,1.2,10.34,10.34,0,0,0,3.55,4.92h0a18.73,18.73,0,0,0,6.13,3.12c3.92,1.25,9.39,2,17,1.52l40.58-3.77-8,8.1,3.22,0a12.66,12.66,0,0,0,4.55-.81l25.94-9.71L300.63,79s2.31-.79,2.85-2.71A3.21,3.21,0,0,0,303.51,74.78Z" style="fill:#FF9E40"></path><path d="M303.51,74.78a2.58,2.58,0,0,0-.75-1.2l-.42-.39a19.3,19.3,0,0,0-4.8-2.7l-.67-.27a40.8,40.8,0,0,0-5.12-1.65,25.81,25.81,0,0,0-6.19-.9h-.45c-2.09.08-17.43,1.42-36.43,3.12-5.27.46-10.82,1-16.45,1.47l-12.68-3.6A13.19,13.19,0,0,0,215,68.2l-8.92.66,8.59,5-25,2.27a22.69,22.69,0,0,1-8.23-2.24,15.12,15.12,0,0,1-5.19-4.14c-1.72-2.21-3-3.88-3.88-5.11l-.07-.09-.32-.45-.32-.43-.06-.09-.23-.32-.05-.07-.21-.3v0l-.6-.87h0l-.07-.11,0,0,0-.06,0,0v0l0,0-3.79.31-2.69.22,2.51,15.58,0,.25v0l0,.13a4.94,4.94,0,0,0,.26,1.2,10.34,10.34,0,0,0,3.55,4.92h0a18.73,18.73,0,0,0,6.13,3.12c3.92,1.25,9.39,2,17,1.52l40.58-3.77-8,8.1,3.22,0a12.66,12.66,0,0,0,4.55-.81l25.94-9.71L300.63,79s2.31-.79,2.85-2.71A3.21,3.21,0,0,0,303.51,74.78Z" style="opacity:0.5"></path></g><g id="freepik--plane-3--inject-2"><polygon points="382.69 237.01 378.15 236.47 366.57 235.07 365.35 245.27 379.53 246.97 379.53 246.97 381.47 247.2 382.69 237.01" style="fill:#FF9E40"></polygon><polygon points="382.69 237.01 378.15 236.47 366.57 235.07 365.35 245.27 379.53 246.97 379.53 246.97 381.47 247.2 382.69 237.01" style="opacity:0.7000000000000001"></polygon><polygon points="337.4 221.76 336 231.57 349.66 233.52 349.66 233.52 351.54 233.79 352.93 223.97 342.65 222.5 337.4 221.76" style="fill:#FF9E40"></polygon><polygon points="337.4 221.76 336 231.57 349.66 233.52 349.66 233.52 351.54 233.79 352.93 223.97 342.65 222.5 337.4 221.76" style="opacity:0.7000000000000001"></polygon><path d="M414.79,192.33a2,2,0,0,0-.54-1l-.31-.32a15.23,15.23,0,0,0-3.64-2.23l-.51-.23a31.51,31.51,0,0,0-3.92-1.44,20.3,20.3,0,0,0-4.77-.89h-.35c-1.62,0-13.56.57-28.34,1.3l-12.8.64L349.88,185a10.13,10.13,0,0,0-3.54-.51l-6.93.24,6.5,4.14-19.49,1a17.42,17.42,0,0,1-6.31-2,11.76,11.76,0,0,1-3.9-3.36c-1.27-1.77-2.19-3.1-2.85-4.08l-.05-.08-.24-.35-.22-.35-.05-.07-.17-.26,0-.05-.16-.24v0c-.2-.32-.35-.54-.43-.69h0l-.05-.09v0l0-.05v0l0,0h0l-3,.12-2.09.09,1.47,12.16,0,.19v.13a3.85,3.85,0,0,0,.16.94,8.11,8.11,0,0,0,2.61,3.92h0a14.61,14.61,0,0,0,4.65,2.62c3,1.08,7.22,1.81,13.14,1.7l31.57-1.68-6.43,6,2.49.12a10,10,0,0,0,3.56-.49l20.41-6.73,31.94-1.7a3.69,3.69,0,0,0,2.29-2A2.4,2.4,0,0,0,414.79,192.33Z" style="fill:#FF9E40"></path><path d="M414.79,192.33a2,2,0,0,0-.54-1l-.31-.32a15.23,15.23,0,0,0-3.64-2.23l-.51-.23a31.51,31.51,0,0,0-3.92-1.44,20.3,20.3,0,0,0-4.77-.89h-.35c-1.62,0-13.56.57-28.34,1.3l-12.8.64L349.88,185a10.13,10.13,0,0,0-3.54-.51l-6.93.24,6.5,4.14-19.49,1a17.42,17.42,0,0,1-6.31-2,11.76,11.76,0,0,1-3.9-3.36c-1.27-1.77-2.19-3.1-2.85-4.08l-.05-.08-.24-.35-.22-.35-.05-.07-.17-.26,0-.05-.16-.24v0c-.2-.32-.35-.54-.43-.69h0l-.05-.09v0l0-.05v0l0,0h0l-3,.12-2.09.09,1.47,12.16,0,.19v.13a3.85,3.85,0,0,0,.16.94,8.11,8.11,0,0,0,2.61,3.92h0a14.61,14.61,0,0,0,4.65,2.62c3,1.08,7.22,1.81,13.14,1.7l31.57-1.68-6.43,6,2.49.12a10,10,0,0,0,3.56-.49l20.41-6.73,31.94-1.7a3.69,3.69,0,0,0,2.29-2A2.4,2.4,0,0,0,414.79,192.33Z" style="opacity:0.7000000000000001"></path><polyline points="352.14 225.58 351.86 198.1 337.7 222.96" style="fill:none;stroke:#263238;stroke-linecap:round;stroke-linejoin:round;stroke-width:0.5px"></polyline><polyline points="382.37 237.67 381.93 196.01 366.9 235.7" style="fill:none;stroke:#263238;stroke-linecap:round;stroke-linejoin:round;stroke-width:0.5px"></polyline></g></svg>